<?xml version="1.0" encoding="UTF-8"?>
<svg width="56px" height="52px" viewBox="0 0 56 52" version="1.1" xmlns="http://www.w3.org/2000/svg" xmlns:xlink="http://www.w3.org/1999/xlink">
    <title>Scissors Icon</title>
    <g id="Main-Flow" stroke="none" stroke-width="1" fill="none" fill-rule="evenodd">
        <g id="Stylists" transform="translate(-1394, -1884)" fill="color(display-p3 1.000 1.000 1.000)">
            <g id="Banner" transform="translate(1284, 1580)">
                <path d="M162.05154,304.504696 C162.243022,304.503977 162.434424,304.575092 162.581957,304.720489 C162.73055,304.865707 162.805321,305.055537 162.806455,305.245469 C162.807591,305.435507 162.735164,305.625605 162.58962,305.770285 L139.055192,329.15375 L150.712468,340.762636 C152.269991,339.385727 154.333732,338.547716 156.587148,338.547716 C159.029271,338.547716 161.242371,339.526136 162.844755,341.10606 C164.447171,342.686013 165.43898,344.867622 165.437954,347.274686 C165.437954,349.681635 164.445634,351.862875 162.84295,353.442436 C161.240265,355.021998 159.027092,356 156.584908,356 C154.143535,356 151.931072,355.020991 150.328539,353.441578 C148.724947,351.861122 147.731868,349.679292 147.731868,347.274686 C147.731868,345.218874 148.467918,343.336167 149.673393,341.840024 L137.999893,330.210622 L126.32405,341.839976 C127.529465,343.336129 128.265596,345.218852 128.265596,347.274686 C128.265596,349.681609 127.273244,351.862827 125.670565,353.442383 C124.067852,355.021974 121.854661,356 119.412556,356 C116.971183,356 114.75872,355.020991 113.156187,353.441578 C111.552595,351.861122 110.559516,349.679292 110.559516,347.274686 C110.559516,344.867653 111.552027,342.685768 113.155229,341.105695 C114.758047,339.526002 116.971398,338.547716 119.414236,338.547716 C121.664873,338.547716 123.720877,339.385598 125.290044,340.761548 L136.943645,329.149215 L113.411939,305.768473 C113.265036,305.620566 113.191355,305.428033 113.192502,305.236192 C113.193626,305.048078 113.267137,304.860674 113.414426,304.718572 C113.56364,304.574616 113.757849,304.503586 113.951269,304.504696 C114.144134,304.505829 114.336485,304.578679 114.482259,304.723587 L137.99944,328.094603 L161.516725,304.727974 C161.664638,304.58096 161.858005,304.506212 162.05154,304.504696 Z M119.41248,340.024656 C117.386729,340.024656 115.549064,340.837108 114.217944,342.149022 C112.886825,343.460937 112.06248,345.27209 112.06248,347.268615 C112.06248,349.265139 112.886825,351.076292 114.217944,352.388207 C115.549064,353.700122 117.386729,354.512574 119.41248,354.512574 C121.440244,354.512574 123.279078,353.701024 124.610268,352.38904 C125.940428,351.07807 126.763664,349.267581 126.762482,347.268293 C126.762482,345.27209 125.938136,343.460937 124.607017,342.149022 C123.275897,340.837108 121.438231,340.024656 119.41248,340.024656 Z M156.58696,340.024656 C154.561209,340.024656 152.723544,340.837108 151.392424,342.149022 C150.061305,343.460937 149.23696,345.27209 149.23696,347.268615 C149.23696,349.265139 150.061305,351.076292 151.392424,352.388207 C152.723544,353.700122 154.561209,354.512574 156.58696,354.512574 C158.613579,354.512574 160.451884,353.701058 161.783109,352.38904 C163.113185,351.078153 163.93696,349.267777 163.93696,347.268615 C163.93696,345.27209 163.112615,343.460937 161.781496,342.149022 C160.450376,340.837108 158.612711,340.024656 156.58696,340.024656 Z M158.186937,322.439923 L158.186937,327.015159 C158.186937,328.525431 159.097543,329.402722 160.5745,329.402722 C162.051457,329.402722 162.939852,328.525431 162.939852,327.015159 L162.939852,322.439923 L163.828248,322.439923 L163.828248,327.015159 C163.828248,329.036259 162.606704,330.257802 160.5745,330.257802 C158.531191,330.257802 157.298542,329.036259 157.298542,327.015159 L157.298542,322.439923 L158.186937,322.439923 Z M112.158287,322.439923 L112.158287,329.369407 L115.567504,329.369407 L115.567504,330.213383 L111.269891,330.213383 L111.269891,322.439923 L112.158287,322.439923 Z M138.069803,304.226541 L141.545649,312 L140.579519,312 L139.713334,310.034425 L135.471246,310.034425 L134.605061,312 L133.661141,312 L137.148092,304.226541 L138.069803,304.226541 Z M137.581185,305.237091 L135.848814,309.179345 L139.335766,309.179345 L137.581185,305.237091 Z" id="Scissors-Icon" fill-rule="nonzero"></path>
            </g>
        </g>
    </g>
</svg>