<?xml version="1.0" encoding="UTF-8"?>
<svg width="150px" height="65px" viewBox="0 0 150 65" version="1.1" xmlns="http://www.w3.org/2000/svg" xmlns:xlink="http://www.w3.org/1999/xlink">
    <title>LauLogo_White</title>
    <g id="Main-Flow" stroke="none" stroke-width="1" fill="none" fill-rule="evenodd">
        <g id="LauLogo_White" fill="color(display-p3 1.000 1.000 1.000)">
            <path d="M149.908807,49.5965645 C149.624566,50.1022294 149.227856,50.4965802 148.719358,50.7796168 C148.21086,51.0626534 147.675778,51.2038323 147.115476,51.2038323 C146.555173,51.2038323 146.020773,51.0626534 145.512275,50.7796168 C145.003777,50.4965802 144.607066,50.1022294 144.322825,49.5965645 C144.037903,49.0908996 143.896123,48.5587636 143.896123,48.0015141 C143.896123,47.4415496 144.040629,46.9060199 144.331005,46.3942463 C144.620699,45.8831515 145.019454,45.4894795 145.526589,45.2132303 C146.033724,44.9369812 146.563353,44.7991959 147.115476,44.7991959 C147.667598,44.7991959 148.197227,44.9369812 148.704362,45.2132303 C149.211497,45.4894795 149.610252,45.8831515 149.900628,46.3942463 C150.190322,46.9060199 149.72204,47.4415496 149.72204,48.0015141 C149.72204,48.5587636 150.193048,49.0908996 149.908807,49.5965645 Z M149.351913,46.7098627 C149.119476,46.2971858 148.799109,45.9808907 148.391492,45.7609774 C147.983876,45.5410641 147.558537,45.4304287 147.115476,45.4304287 C146.673096,45.4304287 146.247757,45.5410641 145.84014,45.7609774 C145.432524,45.9808907 145.112156,46.2965071 144.879719,46.7078265 C144.646601,47.1191458 144.530723,47.5501488 144.530723,48.0015141 C144.530723,48.4474495 144.644556,48.8737012 144.872903,49.2809482 C145.101932,49.6881951 145.420254,50.0051689 145.829234,50.2318697 C146.238896,50.4592492 146.666961,50.5725996 147.115476,50.5725996 C147.56399,50.5725996 147.992737,50.4592492 148.401717,50.2318697 C148.810697,50.0051689 149.129701,49.6881951 149.358048,49.2809482 C149.586395,48.8737012 149.700909,48.4474495 149.700909,48.0015141 C149.700909,47.5528638 149.58435,47.1225395 149.351913,46.7098627 Z M147.090255,49.1933901 C147.278386,49.1933901 147.440614,49.1384117 147.578304,49.0277763 C147.715313,48.9178197 147.821647,48.7345586 147.897309,48.477993 L148.57417,48.704015 C148.467835,49.0549261 148.291292,49.3243878 148.044541,49.5110427 C147.79779,49.6976975 147.504006,49.7913643 147.161827,49.7913643 C146.682639,49.7913643 146.292063,49.635253 145.988736,49.3230303 C145.686773,49.0108077 145.53545,48.5804835 145.53545,48.0307002 C145.53545,47.6716441 145.60225,47.3512766 145.737214,47.0695975 C145.871495,46.7879183 146.065761,46.5775074 146.319328,46.4383647 C146.572896,46.2985433 146.856455,46.2293113 147.170688,46.2293113 C147.514912,46.2293113 147.803243,46.3107607 148.034317,46.4736595 C148.26539,46.6365582 148.445341,46.8938025 148.57417,47.2447136 L147.893219,47.4042187 C147.814831,47.2005952 147.713268,47.0526288 147.588529,46.9609983 C147.46379,46.868689 147.315876,46.8225343 147.145467,46.8225343 C146.889855,46.8225343 146.681275,46.9182374 146.519047,47.1089647 C146.356136,47.3003707 146.275022,47.5990184 146.275022,48.0055866 C146.275022,48.4128335 146.354773,48.71216 146.514957,48.9049235 C146.674459,49.0970083 146.86668,49.1933901 147.090255,49.1933901 Z M121.290448,49.9067509 C114.090359,49.9067509 107.925671,47.4639482 102.796383,42.5763066 C97.6650502,37.6900225 95.1007471,31.7951235 95.1007471,24.8909309 L95.1007471,0 C98.0753932,0 100.630154,1.02897718 102.763665,3.0876103 C104.897857,5.14624341 105.964613,7.61076594 105.964613,10.4804991 L105.964613,24.8909309 C105.964613,29.0081971 107.451936,32.5539602 110.426582,35.5268626 C113.401228,38.5011225 117.022063,39.9875737 121.290448,39.9875737 C125.514527,39.9875737 129.114913,38.4902626 132.088877,35.4963191 C135.063523,32.5016969 136.550847,28.9674725 136.550847,24.8909309 L136.550847,10.4804991 C136.550847,7.61076594 137.618284,5.14624341 139.751795,3.0876103 C141.885988,1.02897718 144.440066,0 147.414712,0 L147.414712,24.8909309 C147.414712,31.7951235 144.849728,37.6900225 139.719758,42.5763066 C134.589107,47.4639482 128.446231,49.9067509 121.290448,49.9067509 Z M97.2765194,56.9894533 C97.8634054,57.4034877 98.1571892,58.0659427 98.1571892,58.9761395 L97.1095193,58.9761395 C97.0556703,58.5376703 96.9404744,58.2016916 96.7652947,57.9675247 C96.4394742,57.5399154 95.8859882,57.3267895 95.1055185,57.3267895 C94.475008,57.3267895 94.0217221,57.463896 93.7463424,57.7387877 C93.470281,58.0136793 93.3325912,58.3333681 93.3325912,58.6971754 C93.3325912,59.0989923 93.4955015,59.3922101 93.821322,59.5781862 C94.0346731,59.6969665 94.5179509,59.8456117 95.2704737,60.0234428 L96.3890333,60.2854383 C96.9288866,60.4116849 97.3446827,60.5847648 97.6377849,60.8039994 C98.1442382,61.1868115 98.3978056,61.7420247 98.3978056,62.470318 C98.3978056,63.3764423 98.0747116,64.0246437 97.4278419,64.4149219 C96.7809723,64.8052002 96.0298128,65 95.1736818,65 C94.1757711,65 93.3939382,64.7400407 92.8295461,64.2201222 C92.2644724,63.7035973 91.9877294,63.0031327 91.9993171,62.1194069 L93.046987,62.1194069 C93.0722074,62.5836684 93.1778605,62.9603717 93.3653096,63.2501958 C93.7218036,63.7931917 94.3495875,64.0640109 95.2486614,64.0640109 C95.6521881,64.0640109 96.0189066,64.0042813 96.3501802,63.885501 C96.9909152,63.6554065 97.3106011,63.2427296 97.3106011,62.6481491 C97.3106011,62.2028925 97.1756377,61.8852399 96.9036662,61.6951914 C96.6289681,61.509894 96.1981761,61.3483527 95.6119718,61.2105675 L94.5315835,60.9601107 C93.8260934,60.7965332 93.3264565,60.6166658 93.0333543,60.419151 C92.526901,60.0777424 92.2733336,59.5666475 92.2733336,58.8872239 C92.2733336,58.1514645 92.5228113,57.5473816 93.0204033,57.0756539 C93.518677,56.6039263 94.2234855,56.3684018 95.136192,56.3684018 C95.9759638,56.3684018 96.6889518,56.575419 97.2765194,56.9894533 Z M45.2904195,42.6387511 C40.1379561,37.7945492 37.5627468,31.9200125 37.5627468,25.01582 C37.5627468,18.1123062 40.1379561,11.6065368 45.2904195,7.32976557 C50.440838,2.44348144 56.5953019,0 63.7517662,0 C70.9075489,0 77.0729189,2.44348144 82.2465129,7.32976557 C87.4194254,11.6065368 90.0055408,18.1123062 90.0055408,25.01582 L90.0055408,49.9067509 L63.7517662,49.9067509 C56.5953019,49.9067509 50.440838,47.4843106 45.2904195,42.6387511 Z M79.0128463,25.01582 C79.0128463,20.8985538 77.5330211,17.3527907 74.5733709,14.3792095 C71.6137206,11.4063071 67.9956129,9.91849841 63.7197295,9.91849841 C59.4424827,9.91849841 55.824375,11.4063071 52.8654064,14.3792095 C49.9057562,17.3527907 48.4266127,20.8985538 48.4266127,25.01582 C48.4266127,29.1330862 49.9057562,32.6578082 52.8654064,35.5893072 C55.824375,38.5214849 59.4424827,39.9875737 63.7197295,39.9875737 L79.0128463,39.9875737 L79.0128463,25.01582 Z M41.4500995,49.9067509 L26.1890194,49.9067509 C19.0325551,49.9067509 12.8780913,47.4843106 7.72699108,42.6387511 C2.57520927,37.7945492 0,31.9200125 0,25.01582 L0,0 C2.97464618,0 5.52872483,1.02897718 7.66291758,3.0876103 C9.79642871,5.14624341 10.8638659,7.61076594 10.8638659,10.4804991 L10.8638659,25.01582 C10.8638659,29.1330862 12.3505074,32.6578082 15.3258352,35.5893072 C18.2997997,38.5214849 21.9213156,39.9875737 26.1890194,39.9875737 L31.1683481,39.9875737 C34.013484,39.9875737 36.4380524,40.9547852 38.4427349,42.8885292 C40.4474174,44.8222733 41.4500995,47.1619068 41.4500995,49.9067509 Z M3.27047488,59.9569258 L7.50068894,59.9569258 L7.50068894,56.5740615 L8.62674657,56.5740615 L8.62674657,64.7604031 L7.50068894,64.7604031 L7.50068894,60.9322821 L3.27047488,60.9322821 L3.27047488,64.7604031 L2.14373562,64.7604031 L2.14373562,56.5740615 L3.27047488,56.5740615 L3.27047488,59.9569258 Z M19.5724084,56.5740615 L22.559324,64.7604031 L21.3378378,64.7604031 L20.4789802,62.3087767 L17.2494033,62.3087767 L16.3564642,64.7604031 L15.2133657,64.7604031 L18.3134324,56.5740615 L19.5724084,56.5740615 Z M20.1627026,61.4060461 L18.8948653,57.7890148 L17.5779504,61.4060461 L20.1627026,61.4060461 Z M30.4519519,64.7604031 L29.3258943,64.7604031 L29.3258943,56.5740615 L30.4519519,56.5740615 L30.4519519,64.7604031 Z M43.1698594,56.8475957 C43.9291985,57.1964705 44.3088681,57.8412781 44.3088681,58.7813397 C44.3088681,59.2713935 44.2073047,59.6725317 44.0034965,59.9847543 C43.8003699,60.296977 43.5147657,60.5474338 43.1487288,60.7368036 C43.4704595,60.8671226 43.7124392,61.0381663 43.8746679,61.2499347 C44.0368965,61.4617031 44.1275537,61.805148 44.1466394,62.2809482 L44.1854925,63.3784786 C44.1970802,63.6907012 44.2229823,63.9228319 44.2638803,64.0748708 C44.3313619,64.3355088 44.4506477,64.50248 44.6224192,64.5764632 L44.6224192,64.7604031 L43.2557451,64.7604031 C43.2182553,64.6898136 43.1882635,64.5988618 43.1657696,64.4875476 C43.1432757,64.3762335 43.1248716,64.1603926 43.1098757,63.8407038 L43.042394,62.4757479 C43.0171736,61.940897 42.8229082,61.5825197 42.4602795,61.3999373 C42.2530631,61.3001619 41.9286058,61.2499347 41.4855444,61.2499347 L39.0193964,61.2499347 L39.0193964,64.7604031 L37.9042449,64.7604031 L37.9042449,56.5740615 L41.6457281,56.5740615 C42.2619243,56.5740615 42.7704225,56.6650133 43.1698594,56.8475957 Z M39.0193964,60.3248055 L41.5264424,60.3248055 C42.0349405,60.3248055 42.437104,60.2209576 42.7329327,60.0125829 C43.0287614,59.8042082 43.1773574,59.4295411 43.1773574,58.8872239 C43.1773574,58.3035034 42.9701409,57.9064376 42.5557081,57.6939905 C42.3341774,57.5826763 42.0383487,57.5270193 41.6675404,57.5270193 L39.0193964,57.5270193 L39.0193964,60.3248055 Z M57.5046003,57.7720462 C58.0539964,58.4928732 58.3286945,59.4159662 58.3286945,60.5420039 C58.3286945,61.411476 58.1664659,62.1974625 57.8420086,62.8992847 C57.2708002,64.1400303 56.2878855,64.7604031 54.8946277,64.7604031 L51.6159732,64.7604031 L51.6159732,56.5740615 L54.9055338,56.5740615 C56.0227302,56.5740615 56.8890857,56.9738422 57.5046003,57.7720462 Z M52.7420309,57.5270193 L52.7420309,63.813554 L54.6867297,63.813554 C55.0561747,63.813554 55.3595014,63.7741868 55.5967096,63.6961312 C56.0200037,63.5515585 56.3669549,63.2725944 56.6375632,62.8599175 C56.8529592,62.5293688 57.0083715,62.105832 57.1031185,61.5899859 C57.1583307,61.281157 57.185596,60.9954054 57.185596,60.7313737 C57.185596,59.7173289 56.9872409,58.9293061 56.5912121,58.3686629 C56.1945017,57.8073409 55.5564933,57.5270193 54.6758235,57.5270193 L52.7420309,57.5270193 Z M70.7609978,56.8475957 C71.5203369,57.1964705 71.9000065,57.8412781 71.9000065,58.7813397 C71.9000065,59.2713935 71.7977615,59.6725317 71.5946349,59.9847543 C71.3908266,60.296977 71.1059041,60.5474338 70.7398672,60.7368036 C71.0609163,60.8671226 71.302896,61.0381663 71.4658063,61.2499347 C71.6280349,61.4617031 71.7186921,61.805148 71.7370962,62.2809482 L71.7766309,63.3784786 C71.787537,63.6907012 71.8141207,63.9228319 71.8550187,64.0748708 C71.9218187,64.3355088 72.0417861,64.50248 72.2135576,64.5764632 L72.2135576,64.7604031 L70.8462019,64.7604031 C70.8087121,64.6898136 70.7794019,64.5988618 70.756908,64.4875476 C70.7344141,64.3762335 70.7153284,64.1603926 70.7003325,63.8407038 L70.6335324,62.4757479 C70.608312,61.940897 70.4140466,61.5825197 70.0507363,61.3999373 C69.8442015,61.3001619 69.5190626,61.2499347 69.0766828,61.2499347 L66.6105348,61.2499347 L66.6105348,64.7604031 L65.4953833,64.7604031 L65.4953833,56.5740615 L69.2368665,56.5740615 C69.8530627,56.5740615 70.3608793,56.6650133 70.7609978,56.8475957 Z M66.6105348,60.3248055 L69.1168991,60.3248055 C69.6253973,60.3248055 70.0275608,60.2209576 70.3233895,60.0125829 C70.6198998,59.8042082 70.7678141,59.4295411 70.7678141,58.8872239 C70.7678141,58.3035034 70.5612793,57.9064376 70.1468465,57.6939905 C69.9253158,57.5826763 69.6288055,57.5270193 69.2586788,57.5270193 L66.6105348,57.5270193 L66.6105348,60.3248055 Z M85.2354734,57.5772464 L80.3495285,57.5772464 L80.3495285,60.06281 L84.8660284,60.06281 L84.8660284,61.0103378 L80.3495285,61.0103378 L80.3495285,63.7850467 L85.3199959,63.7850467 L85.3199959,64.7604031 L79.2623239,64.7604031 L79.2623239,56.5740615 L85.2354734,56.5740615 L85.2354734,57.5772464 Z M106.527642,63.2501958 C106.883454,63.7931917 107.51192,64.0640109 108.410994,64.0640109 C108.81452,64.0640109 109.181239,64.0042813 109.512512,63.885501 C110.152566,63.6554065 110.472933,63.2427296 110.472933,62.6481491 C110.472933,62.2028925 110.337288,61.8852399 110.065998,61.6951914 C109.7913,61.509894 109.360508,61.3483527 108.774304,61.2105675 L107.693916,60.9601107 C106.988426,60.7965332 106.488789,60.6166658 106.195687,60.419151 C105.689233,60.0777424 105.435666,59.5666475 105.435666,58.8872239 C105.435666,58.1514645 105.685143,57.5473816 106.182735,57.0756539 C106.681009,56.6039263 107.385818,56.3684018 108.298524,56.3684018 C109.138296,56.3684018 109.851284,56.575419 110.438852,56.9894533 C111.025738,57.4034877 111.31884,58.0659427 111.31884,58.9761395 L110.27117,58.9761395 C110.217321,58.5376703 110.102807,58.2016916 109.927627,57.9675247 C109.601806,57.5399154 109.04832,57.3267895 108.267851,57.3267895 C107.63734,57.3267895 107.184054,57.463896 106.908675,57.7387877 C106.632613,58.0136793 106.494923,58.3333681 106.494923,58.6971754 C106.494923,59.0989923 106.657834,59.3922101 106.983654,59.5781862 C107.197005,59.6969665 107.680283,59.8456117 108.432806,60.0234428 L109.551366,60.2854383 C110.090537,60.4116849 110.507015,60.5847648 110.800117,60.8039994 C111.30657,61.1868115 111.560138,61.7420247 111.560138,62.470318 C111.560138,63.3764423 111.237044,64.0246437 110.590174,64.4149219 C109.943304,64.8052002 109.192145,65 108.336014,65 C107.338103,65 106.55627,64.7400407 105.991878,64.2201222 C105.426805,63.7035973 105.150062,63.0031327 105.160968,62.1194069 L106.209319,62.1194069 C106.23454,62.5836684 106.340193,62.9603717 106.527642,63.2501958 Z M120.021248,64.7604031 L118.89519,64.7604031 L118.89519,56.5740615 L120.021248,56.5740615 L120.021248,64.7604031 Z M132.757559,63.18843 L132.757559,56.5740615 L133.82227,56.5740615 L133.82227,64.7604031 L132.569428,64.7604031 L128.40397,58.1541795 L128.40397,64.7604031 L127.339259,64.7604031 L127.339259,56.5740615 L128.652766,56.5740615 L132.757559,63.18843 Z M144.637058,56.3622931 C145.399124,56.3622931 146.058263,56.5109382 146.613794,56.8082285 C147.420165,57.2358377 147.913668,57.9838145 148.093619,59.0541952 L146.990055,59.0541952 C146.8585,58.456221 146.585847,58.0204668 146.172777,57.7469326 C145.759026,57.4740772 145.238258,57.3376495 144.60843,57.3376495 C143.862723,57.3376495 143.234258,57.6220435 142.723714,58.190153 C142.213171,58.7589412 141.958241,59.6060147 141.958241,60.7313737 C141.958241,61.7046938 142.168865,62.496789 142.590114,63.1083381 C143.010682,63.7192085 143.697086,64.0246437 144.649328,64.0246437 C145.377312,64.0246437 145.980557,63.8101603 146.458381,63.3811935 C146.936206,62.9522268 147.180912,62.2585496 147.191818,61.3001619 L144.614564,61.3001619 L144.614564,60.3804626 L148.228582,60.3804626 L148.228582,64.7604031 L147.510823,64.7604031 L147.242259,63.7069911 C146.870769,64.1196679 146.542222,64.4060983 146.255255,64.5656033 C145.774022,64.840495 145.161916,64.9776014 144.420299,64.9776014 C143.461241,64.9776014 142.635784,64.6640213 141.94529,64.0361823 C141.192085,63.2481596 140.815142,62.1675978 140.815142,60.7924607 C140.815142,59.4220749 141.183224,58.3313319 141.920069,57.5215893 C142.619425,56.7484989 143.525315,56.3622931 144.637058,56.3622931 Z" id="Shape"></path>
        </g>
    </g>
</svg>